<svg width="26" height="24" viewBox="0 0 26 24" fill="none" xmlns="http://www.w3.org/2000/svg">
<path d="M19.2436 0.0281019H6.75636C3.30653 0.0281019 0.5 2.83546 0.5 6.28631V17.7137C0.5 21.1645 3.30653 23.9719 6.75636 23.9719H19.2436C22.6935 23.9719 25.5 21.1645 25.5 17.7137V6.28631C25.5 2.83546 22.6935 0.0281019 19.2436 0.0281019ZM2.70705 6.28631C2.70705 4.05315 4.52387 2.23578 6.75636 2.23578H19.2436C21.4761 2.23578 23.293 4.05315 23.293 6.28631V17.7137C23.293 19.9468 21.4761 21.7642 19.2436 21.7642H6.75636C4.52387 21.7642 2.70705 19.9468 2.70705 17.7137V6.28631Z" fill="#161A1E"/>
<path d="M13 17.8198C16.2081 17.8198 18.8195 15.209 18.8195 11.9986C18.8195 8.78816 16.2095 6.17741 13 6.17741C9.79055 6.17741 7.18054 8.78816 7.18054 11.9986C7.18054 15.209 9.79055 17.8198 13 17.8198ZM13 8.3865C14.9922 8.3865 16.6125 10.0073 16.6125 12C16.6125 13.9927 14.9922 15.6135 13 15.6135C11.0079 15.6135 9.38759 13.9927 9.38759 12C9.38759 10.0073 11.0079 8.3865 13 8.3865Z" fill="#161A1E"/>
<path d="M19.3583 7.11789C20.2221 7.11789 20.9262 6.41502 20.9262 5.54948C20.9262 4.68393 20.2235 3.98102 19.3583 3.98102C18.493 3.98102 17.7903 4.68393 17.7903 5.54948C17.7903 6.41502 18.493 7.11789 19.3583 7.11789Z" fill="#161A1E"/>
</svg>
