<svg width="25" height="26" viewBox="0 0 25 26" fill="none" xmlns="http://www.w3.org/2000/svg">
<path d="M16.6671 9.87504V6.75004C16.6671 4.44885 14.8016 2.58337 12.5004 2.58337C10.1992 2.58337 8.33376 4.44885 8.33376 6.75004V9.87504M3.7421 11.2833L3.1171 17.95C2.93939 19.8455 2.85054 20.7933 3.16506 21.5253C3.44136 22.1684 3.92555 22.7001 4.54003 23.0352C5.23951 23.4167 6.19143 23.4167 8.09527 23.4167H16.9056C18.8094 23.4167 19.7613 23.4167 20.4608 23.0352C21.0753 22.7001 21.5595 22.1684 21.8358 21.5253C22.1503 20.7933 22.0615 19.8455 21.8838 17.95L21.2588 11.2833C21.1087 9.68269 21.0337 8.88237 20.6737 8.27729C20.3567 7.7444 19.8883 7.31786 19.3281 7.05196C18.6921 6.75004 17.8882 6.75004 16.2806 6.75004L8.72027 6.75004C7.1126 6.75004 6.30877 6.75004 5.67274 7.05196C5.11258 7.31786 4.64418 7.7444 4.32716 8.27729C3.96719 8.88237 3.89216 9.68269 3.7421 11.2833Z" stroke="#9EACB9" stroke-width="2" stroke-linecap="round" stroke-linejoin="round"/>
</svg>
