<svg width="20" height="18" viewBox="0 0 20 18" fill="none" xmlns="http://www.w3.org/2000/svg">
<path d="M0 1.80302C0 1.1208 0.553047 0.567749 1.23527 0.567749H13.588C14.2703 0.567749 14.8233 1.1208 14.8233 1.80302C14.8233 2.48525 14.2703 3.0383 13.588 3.0383H1.23527C0.553047 3.0383 0 2.48525 0 1.80302Z" />
<path d="M1.23527 6.00305C0.553047 6.00305 0 6.55606 0 7.23833C0 7.92059 0.553047 8.4736 1.23527 8.4736H13.588C14.2703 8.4736 14.8233 7.92059 14.8233 7.23833C14.8233 6.55606 14.2703 6.00305 13.588 6.00305H1.23527Z" />
<path d="M0 12.6731C0 11.9909 0.553047 11.4379 1.23527 11.4379H10.6233C11.3056 11.4379 11.8586 11.9909 11.8586 12.6731C11.8586 13.3554 11.3056 13.9084 10.6233 13.9084H1.23527C0.553047 13.9084 0 13.3554 0 12.6731Z" />
<path d="M13.8422 16.936C13.9116 17.4431 14.4809 17.7401 14.9441 17.4754L19.6266 14.7997C20.1245 14.5152 20.1245 13.7971 19.6266 13.5126L14.9441 10.8369C14.45 10.5546 13.8352 10.9113 13.8352 11.4804V16.8318C13.8352 16.8674 13.8376 16.9022 13.8422 16.936Z" />
</svg>
