<svg width="20" height="21" viewBox="0 0 20 21" fill="none" xmlns="http://www.w3.org/2000/svg">
<path d="M16.7001 6.58375L11.9001 3.22542C10.5918 2.30875 8.58345 2.35875 7.32511 3.33375L3.15011 6.59209C2.31678 7.24209 1.65845 8.57542 1.65845 9.62542V15.3754C1.65845 17.5004 3.38345 19.2338 5.50845 19.2338H14.4918C16.6168 19.2338 18.3418 17.5088 18.3418 15.3838V9.73375C18.3418 8.60875 17.6168 7.22542 16.7001 6.58375ZM10.6251 15.9004C10.6251 16.2421 10.3418 16.5254 10.0001 16.5254C9.65845 16.5254 9.37511 16.2421 9.37511 15.9004V13.4004C9.37511 13.0588 9.65845 12.7754 10.0001 12.7754C10.3418 12.7754 10.6251 13.0588 10.6251 13.4004V15.9004Z" 
/>
</svg>
