<svg width="115" height="80" viewBox="0 0 115 80" fill="none" xmlns="http://www.w3.org/2000/svg">
<g clip-path="url(#clip0_1_978)">
<g clip-path="url(#clip1_1_978)">
<g filter="url(#filter0_b_1_978)">
<path d="M86.5744 25.8398C84.9542 35.3912 76.4995 43.6962 65.8638 48.4287C50.678 55.1837 37.1433 47.7211 31.2606 36.5794C30.1329 34.4484 29.2866 32.1826 28.7651 29.8566C26.669 20.5685 29.6942 10.3094 40.4975 3.74944C54.7853 -5.59091 83.5948 3.63083 86.5579 19.113C86.5703 19.1833 86.5827 19.2517 86.5951 19.3221C86.9614 21.5375 86.9365 23.7228 86.5744 25.8398Z" fill="#FCD731"/>
</g>
<path d="M86.5648 18.9081C86.5524 18.8357 86.4356 18.5922 86.4231 18.5198H68.3199C65.2037 18.5198 62.5448 20.7232 62.0275 23.6846L59.0354 35.1358L52.6933 18.9058C52.6809 18.8716 52.6706 18.8294 52.654 18.7691C51.9732 16.2058 49.6806 14.3543 46.9451 14.1572C44.1703 13.9642 41.681 15.4419 40.603 17.9308L36.0777 28.3507C35.6969 29.2313 34.8175 29.7982 33.8367 29.7982L28.7942 29.8367C29.3425 32.2793 30.3018 34.6192 31.4854 36.8567H33.8346C37.7454 36.8567 41.2507 34.599 42.7694 31.0949L46.4071 22.7216L52.9789 39.5406C52.9913 39.5828 53.0016 39.6231 53.0141 39.6733C53.7424 42.4517 56.2399 44.3113 59.1741 44.3113C59.3106 44.3113 59.4534 44.3073 59.5941 44.2993C62.6089 44.1183 64.9947 42.0114 65.4851 39.1426L69.0297 25.5824H86.6233C87.004 23.3589 86.9455 21.2342 86.5627 18.9081H86.5648Z" fill="white"/>
</g>
<g clip-path="url(#clip2_1_978)">
<path d="M2.22513 79.4616V68.3651C2.19572 67.8088 2.10748 67.1936 1.49159 67.1936H0.818604V63.6515H1.52273C3.07631 63.6515 6.82877 63.6515 7.03464 66.0809C8.08997 64.5586 9.90824 63.3284 12.4583 63.3284C17.0602 63.3284 19.3473 65.5833 19.3473 70.15V74.0447C19.3473 75.363 19.6397 75.9471 21.0186 75.9471H21.2244L21.2538 79.4616C18.792 79.4616 14.5119 79.6084 14.5119 75.7432V71.4978C14.5119 68.4239 13.5448 66.9604 10.993 66.9604C8.91174 66.9604 7.03464 68.6589 7.06405 71.5565L7.03464 71.5272V79.4616H2.22513Z" fill="black"/>
<path d="M23.0098 63.6498H27.8175V72.9319C27.8175 75.04 29.4005 76.0352 31.0718 76.0352C32.9194 76.0352 34.8536 74.8343 34.8536 72.5812V63.6498H39.6614V74.0447C39.6614 75.3631 39.8085 75.9195 41.1856 75.9195H41.3915L41.4209 79.4616C37.7566 79.4616 35.5283 79.1108 35.0007 77.0322C33.7395 78.9346 31.6582 79.9022 29.5476 79.9022C26.264 79.9022 23.0098 77.5592 23.0098 72.9337V63.6515V63.6498Z" fill="black"/>
<path d="M43.8831 79.4616V68.3651C43.8537 67.8087 43.7655 67.1936 43.1496 67.1936H42.4749V63.6515H43.179C44.6737 63.6515 48.1632 63.6515 48.6321 65.7595C49.5109 64.3824 50.978 63.3301 53.0298 63.3301C55.9328 63.3301 57.7494 64.3547 58.6594 66.404C59.3047 64.7348 60.7112 63.3301 63.3789 63.3301C67.7179 63.3301 69.6521 65.585 69.6521 70.1517V74.0464C69.6521 75.3648 69.9444 75.9488 71.3233 75.9488H71.5292V79.4633C69.0673 79.4633 64.8166 79.6102 64.8166 75.7449V71.0312C64.8166 68.3081 64.0537 66.9621 62.1489 66.9621C60.3894 66.9621 59.4223 68.3668 59.3047 70.8567V79.465H54.4675V71.033C54.4675 68.3098 53.6475 66.9638 51.7115 66.9638C49.7756 66.9638 48.6926 68.6036 48.722 71.56L48.6926 71.5306V79.465H43.8848L43.8831 79.4616Z" fill="black"/>
<path d="M91.345 63.6498V79.4616H87.1237L86.6549 76.9441C85.3348 78.964 83.2536 79.9022 81.0841 79.9022C77.214 79.9022 73.1692 76.8577 73.1692 71.5583C73.1692 66.2589 77.214 63.2144 81.0841 63.2144C83.1654 63.2144 85.1878 64.0921 86.5372 65.9962V63.6532H91.345V63.6498ZM82.3747 76.094C84.456 76.094 86.5078 74.6305 86.5078 71.5566C86.5078 68.4827 84.456 67.0468 82.3747 67.0468C80.2935 67.0468 78.0064 68.5984 78.0064 71.5566C78.0064 74.5147 80.2347 76.094 82.3747 76.094Z" fill="black"/>
<path d="M95.1858 79.4616V57.502H99.9936V66.1984C100.99 64.6174 102.75 63.3284 105.388 63.3284C109.99 63.3284 112.277 65.5832 112.277 70.15V74.0447C112.277 75.363 112.599 75.9471 113.948 75.9471H114.154L114.183 79.4616C111.722 79.4616 107.44 79.6084 107.44 75.7432L107.469 71.4978C107.469 68.4239 106.473 66.9604 103.922 66.9604C101.841 66.9604 99.9936 68.6001 99.9936 71.5565V71.5271V79.4616H95.1858Z" fill="black"/>
<path d="M112.274 55C113.319 55 114.181 55.8467 114.181 56.8765C114.181 57.9063 113.345 58.8065 112.274 58.8065C111.204 58.8065 110.342 57.9339 110.342 56.8765C110.342 55.819 111.216 55 112.274 55ZM112.274 58.4938C113.162 58.4938 113.88 57.7249 113.88 56.8782C113.88 56.0315 113.15 55.2868 112.274 55.2868C111.399 55.2868 110.669 56.0177 110.669 56.8782C110.669 57.7387 111.399 58.4938 112.274 58.4938ZM113.07 57.9599H112.679L112.013 57.1391H111.844V57.9599H111.543V55.743H112.221C112.665 55.7568 112.991 56.0298 112.991 56.4341C112.991 56.7728 112.729 57.0475 112.364 57.1115L113.069 57.9581L113.07 57.9599ZM111.844 56.8644H112.105C112.458 56.8644 112.719 56.7469 112.719 56.4341C112.719 56.1214 112.472 55.978 112.119 55.978H111.845V56.8644H111.844Z" fill="black"/>
</g>
</g>
<defs>
<filter id="filter0_b_1_978" x="18.1428" y="-10.0011" width="78.7153" height="71.001" filterUnits="userSpaceOnUse" color-interpolation-filters="sRGB">
<feFlood flood-opacity="0" result="BackgroundImageFix"/>
<feGaussianBlur in="BackgroundImageFix" stdDeviation="5"/>
<feComposite in2="SourceAlpha" operator="in" result="effect1_backgroundBlur_1_978"/>
<feBlend mode="normal" in="SourceGraphic" in2="effect1_backgroundBlur_1_978" result="shape"/>
</filter>
<clipPath id="clip0_1_978">
<rect width="113.363" height="79.9005" fill="white" transform="translate(0.818604)"/>
</clipPath>
<clipPath id="clip1_1_978">
<rect width="61" height="51" fill="white" transform="translate(27)"/>
</clipPath>
<clipPath id="clip2_1_978">
<rect width="113.363" height="24.9005" fill="white" transform="translate(0.818604 55)"/>
</clipPath>
</defs>
</svg>
