<svg width="52" height="45" viewBox="0 0 52 45" fill="none" xmlns="http://www.w3.org/2000/svg">
<g clip-path="url(#clip0_1_3288)">
<path d="M50.7842 22.7998C49.403 31.2276 42.1957 38.5555 33.1292 42.7312C20.1839 48.6915 8.64619 42.1068 3.6314 32.2759C2.67007 30.3956 1.94863 28.3964 1.50413 26.344C-0.282712 18.1487 2.29612 9.09652 11.5055 3.30832C23.6853 -4.93316 48.2442 3.20366 50.7701 16.8644C50.7807 16.9265 50.7912 16.9868 50.8018 17.0489C51.114 19.0037 51.0929 20.9319 50.7842 22.7998Z" fill="#FFD500"/>
<path d="M51.7654 16.5344C51.7548 16.4705 51.7425 16.4049 51.7319 16.341H35.2235C32.567 16.341 30.3004 18.2852 29.8594 20.8981L27.3088 31.0022L21.9024 16.6816C21.8919 16.6514 21.883 16.6142 21.8689 16.561C21.2886 14.2993 19.3342 12.6655 17.0023 12.4917C14.6369 12.3214 12.5149 13.6252 11.5959 15.8213L7.73826 25.0153C7.4137 25.7923 6.66404 26.2925 5.82795 26.2925H0C0.467436 28.4478 1.22415 30.5463 2.23311 32.5206H5.82619C9.15997 32.5206 12.148 30.5286 13.4427 27.4367L16.5437 20.0484L22.1459 34.8888C22.1564 34.926 22.1653 34.9615 22.1758 35.0059C22.7967 37.4574 24.9258 39.0982 27.427 39.0982C27.5434 39.0982 27.6651 39.0947 27.7851 39.0876C30.3551 38.9279 32.3889 37.0689 32.8069 34.5376L35.8285 22.5727H51.7442C52.0688 20.6108 52.09 18.5868 51.7636 16.5344H51.7654Z" fill="white"/>
</g>
<defs>
<clipPath id="clip0_1_3288">
<rect width="52" height="45" fill="white"/>
</clipPath>
</defs>
</svg>
