<svg width="114" height="80" viewBox="0 0 114 80" fill="none" xmlns="http://www.w3.org/2000/svg">
<g clip-path="url(#clip0_1_254)">
<g clip-path="url(#clip1_1_254)">
<g filter="url(#filter0_b_1_254)">
<path d="M85.7555 25.8389C84.1353 35.3904 75.6806 43.6954 65.0449 48.4279C49.859 55.1828 36.3244 47.7202 30.4417 36.5785C29.314 34.4475 28.4677 32.1818 27.9462 29.8557C25.8501 20.5677 28.8753 10.3085 39.6786 3.74859C53.9664 -5.59176 82.7759 3.62997 85.739 19.1121C85.7514 19.1825 85.7638 19.2508 85.7762 19.3212C86.1425 21.5367 86.1176 23.722 85.7555 25.8389Z" fill="#FCD731"/>
</g>
<path d="M85.7468 18.9084C85.7344 18.836 85.6176 18.5924 85.6052 18.5201H67.502C64.3858 18.5201 61.7269 20.7235 61.2096 23.6848L58.2175 35.1361L51.8754 18.9061C51.863 18.8719 51.8526 18.8297 51.8361 18.7694C51.1553 16.2061 48.8626 14.3545 46.1272 14.1575C43.3524 13.9645 40.8631 15.4421 39.7851 17.931L35.2597 28.3509C34.879 29.2315 33.9996 29.7984 33.0188 29.7984L27.9763 29.8369C28.5246 32.2796 29.4839 34.6194 30.6674 36.857H33.0167C36.9275 36.857 40.4327 34.5993 41.9515 31.0952L45.5892 22.7218L52.1609 39.5409C52.1734 39.5831 52.1837 39.6233 52.1961 39.6736C52.9245 42.4519 55.422 44.3116 58.3561 44.3116C58.4927 44.3116 58.6355 44.3075 58.7762 44.2995C61.791 44.1186 64.1768 42.0117 64.6672 39.1428L68.2117 25.5826H85.8054C86.1861 23.3591 86.1276 21.2344 85.7448 18.9084H85.7468Z" fill="white"/>
</g>
<g clip-path="url(#clip2_1_254)">
<path d="M1.40652 79.4616V68.3651C1.37711 67.8088 1.28888 67.1936 0.672986 67.1936H0V63.6515H0.704127C2.2577 63.6515 6.01016 63.6515 6.21604 66.0809C7.27136 64.5586 9.08964 63.3284 11.6397 63.3284C16.2416 63.3284 18.5287 65.5833 18.5287 70.15V74.0447C18.5287 75.363 18.8211 75.9471 20.2 75.9471H20.4058L20.4352 79.4616C17.9734 79.4616 13.6933 79.6084 13.6933 75.7432V71.4978C13.6933 68.4239 12.7262 66.9604 10.1744 66.9604C8.09313 66.9604 6.21604 68.6589 6.24545 71.5565L6.21604 71.5272V79.4616H1.40652Z" fill="black"/>
<path d="M22.1914 63.6484H26.9992V72.9306C26.9992 75.0386 28.5822 76.0339 30.2534 76.0339C32.1011 76.0339 34.0353 74.833 34.0353 72.5798V63.6484H38.8431V74.0434C38.8431 75.3617 38.9901 75.9181 40.3672 75.9181H40.5731L40.6025 79.4603C36.9383 79.4603 34.71 79.1095 34.1823 77.0309C32.9211 78.9333 30.8399 79.9009 28.7292 79.9009C25.4456 79.9009 22.1914 77.5579 22.1914 72.9323V63.6502V63.6484Z" fill="black"/>
<path d="M43.0645 79.4616V68.3651C43.0351 67.8087 42.9469 67.1936 42.331 67.1936H41.6562V63.6515H42.3604C43.8551 63.6515 47.3446 63.6515 47.8135 65.7595C48.6923 64.3824 50.1594 63.3301 52.2112 63.3301C55.1142 63.3301 56.9308 64.3547 57.8408 66.404C58.4861 64.7348 59.8926 63.3301 62.5603 63.3301C66.8993 63.3301 68.8335 65.585 68.8335 70.1517V74.0464C68.8335 75.3648 69.1258 75.9488 70.5047 75.9488H70.7106V79.4633C68.2487 79.4633 63.998 79.6102 63.998 75.7449V71.0312C63.998 68.3081 63.2351 66.9621 61.3303 66.9621C59.5708 66.9621 58.6037 68.3668 58.4861 70.8567V79.465H53.6489V71.033C53.6489 68.3098 52.8289 66.9638 50.8929 66.9638C48.957 66.9638 47.874 68.6036 47.9034 71.56L47.874 71.5306V79.465H43.0662L43.0645 79.4616Z" fill="black"/>
<path d="M90.5254 63.6503V79.4621H86.3041L85.8353 76.9446C84.5153 78.9645 82.434 79.9027 80.2645 79.9027C76.3944 79.9027 72.3496 76.8582 72.3496 71.5588C72.3496 66.2594 76.3944 63.2148 80.2645 63.2148C82.3458 63.2148 84.3682 64.0926 85.7176 65.9967V63.6537H90.5254V63.6503ZM81.5552 76.0945C83.6364 76.0945 85.6882 74.6309 85.6882 71.557C85.6882 68.4831 83.6364 67.0473 81.5552 67.0473C79.4739 67.0473 77.1868 68.5989 77.1868 71.557C77.1868 74.5152 79.4151 76.0945 81.5552 76.0945Z" fill="black"/>
<path d="M94.3672 79.4616V57.502H99.175V66.1984C100.171 64.6174 101.931 63.3284 104.569 63.3284C109.171 63.3284 111.458 65.5832 111.458 70.15V74.0447C111.458 75.363 111.78 75.9471 113.129 75.9471H113.335L113.365 79.4616C110.903 79.4616 106.621 79.6084 106.621 75.7432L106.65 71.4978C106.65 68.4239 105.654 66.9604 103.104 66.9604C101.023 66.9604 99.175 68.6001 99.175 71.5565V71.5271V79.4616H94.3672Z" fill="black"/>
<path d="M111.456 55C112.501 55 113.362 55.8467 113.362 56.8765C113.362 57.9063 112.527 58.8065 111.456 58.8065C110.385 58.8065 109.523 57.9339 109.523 56.8765C109.523 55.819 110.397 55 111.456 55ZM111.456 58.4938C112.343 58.4938 113.061 57.7249 113.061 56.8782C113.061 56.0315 112.331 55.2868 111.456 55.2868C110.58 55.2868 109.85 56.0177 109.85 56.8782C109.85 57.7387 110.58 58.4938 111.456 58.4938ZM112.252 57.9599H111.861L111.195 57.1391H111.025V57.9599H110.724V55.743H111.402C111.847 55.7568 112.172 56.0298 112.172 56.4341C112.172 56.7728 111.911 57.0475 111.546 57.1115L112.25 57.9581L112.252 57.9599ZM111.025 56.8644H111.286C111.639 56.8644 111.901 56.7469 111.901 56.4341C111.901 56.1214 111.653 55.978 111.3 55.978H111.027V56.8644H111.025Z" fill="black"/>
</g>
</g>
<defs>
<filter id="filter0_b_1_254" x="17.3239" y="-10.002" width="78.7153" height="71.001" filterUnits="userSpaceOnUse" color-interpolation-filters="sRGB">
<feFlood flood-opacity="0" result="BackgroundImageFix"/>
<feGaussianBlur in="BackgroundImageFix" stdDeviation="5"/>
<feComposite in2="SourceAlpha" operator="in" result="effect1_backgroundBlur_1_254"/>
<feBlend mode="normal" in="SourceGraphic" in2="effect1_backgroundBlur_1_254" result="shape"/>
</filter>
<clipPath id="clip0_1_254">
<rect width="113.363" height="79.9005" fill="white"/>
</clipPath>
<clipPath id="clip1_1_254">
<rect width="61" height="51" fill="white" transform="translate(26.1813)"/>
</clipPath>
<clipPath id="clip2_1_254">
<rect width="113.363" height="24.9005" fill="white" transform="translate(0 55)"/>
</clipPath>
</defs>
</svg>
