<svg width="25" height="24" viewBox="0 0 25 24" fill="none" xmlns="http://www.w3.org/2000/svg">
<path d="M21.187 5.25H14.187C13.777 5.25 13.437 4.91 13.437 4.5C13.437 4.09 13.777 3.75 14.187 3.75H21.187C21.597 3.75 21.937 4.09 21.937 4.5C21.937 4.91 21.597 5.25 21.187 5.25Z" fill="#040414"/>
<path d="M21.187 10.25H14.187C13.777 10.25 13.437 9.91 13.437 9.5C13.437 9.09 13.777 8.75 14.187 8.75H21.187C21.597 8.75 21.937 9.09 21.937 9.5C21.937 9.91 21.597 10.25 21.187 10.25Z" fill="#040414"/>
<path d="M21.187 15.25H3.18701C2.77701 15.25 2.43701 14.91 2.43701 14.5C2.43701 14.09 2.77701 13.75 3.18701 13.75H21.187C21.597 13.75 21.937 14.09 21.937 14.5C21.937 14.91 21.597 15.25 21.187 15.25Z" fill="#040414"/>
<path d="M21.187 20.25H3.18701C2.77701 20.25 2.43701 19.91 2.43701 19.5C2.43701 19.09 2.77701 18.75 3.18701 18.75H21.187C21.597 18.75 21.937 19.09 21.937 19.5C21.937 19.91 21.597 20.25 21.187 20.25Z" fill="#040414"/>
<path d="M8.10701 10.75H5.26701C3.72701 10.75 2.93701 9.97 2.93701 8.42V5.58C2.93701 4.04 3.71701 3.25 5.26701 3.25H8.11701C9.65701 3.25 10.447 4.03 10.447 5.58V8.43C10.437 9.97 9.65701 10.75 8.10701 10.75ZM5.26701 4.75C4.55701 4.75 4.43701 4.87 4.43701 5.58V8.43C4.43701 9.14 4.55701 9.26 5.26701 9.26H8.11701C8.82701 9.26 8.94701 9.14 8.94701 8.43V5.58C8.94701 4.87 8.82701 4.75 8.11701 4.75H5.26701Z" />
</svg>
