<svg width="20" height="21" viewBox="0 0 20 21" fill="none" xmlns="http://www.w3.org/2000/svg">
<path d="M18.3334 11.7337V15.067C18.3334 17.9837 16.6667 19.2337 14.1667 19.2337H5.83342C3.33341 19.2337 1.66675 17.9837 1.66675 15.067V11.7337C1.66675 9.52535 2.62508 8.27537 4.16675 7.80037C4.66675 7.64204 5.22508 7.56702 5.83342 7.56702H14.1667C14.7751 7.56702 15.3334 7.64204 15.8334 7.80037C17.3751 8.27537 18.3334 9.52535 18.3334 11.7337Z"   stroke-width="1.5" strokeMiterlimit="10" strokeLinecap="round" strokeLinejoin="round"/>
<path d="M15.8334 6.73368V7.80037C15.3334 7.64204 14.7751 7.56702 14.1667 7.56702H5.83341C5.22508 7.56702 4.66675 7.64204 4.16675 7.80037V6.73368C4.16675 5.81702 4.91675 5.06702 5.83341 5.06702H14.1667C15.0834 5.06702 15.8334 5.81702 15.8334 6.73368Z"  stroke-width="1.5" strokeMiterlimit="10" strokeLinecap="round" strokeLinejoin="round"/>
<path d="M13.3334 3.82536V5.06702H6.66675V3.82536C6.66675 3.13369 7.23342 2.56702 7.92509 2.56702H12.0751C12.7667 2.56702 13.3334 3.13369 13.3334 3.82536Z"  stroke-width="1.5" strokeMiterlimit="10" strokeLinecap="round" strokeLinejoin="round"/>
<path d="M7.55826 17.1087C8.16577 17.1087 8.65826 16.6162 8.65826 16.0087C8.65826 15.4012 8.16577 14.9087 7.55826 14.9087C6.95074 14.9087 6.45825 15.4012 6.45825 16.0087C6.45825 16.6162 6.95074 17.1087 7.55826 17.1087Z" stroke="#F8F9FA" strokeOpacity="0.75" strokeLinecap="round" strokeLinejoin="round"/>
<path d="M12.7081 15.2754V10.9671C12.7081 10.0504 12.1331 9.91708 11.5498 10.0837L9.3415 10.6837C8.9415 10.7921 8.6665 11.1087 8.6665 11.5671V12.3337V12.8504V16.0087" stroke="#F8F9FA" strokeOpacity="0.75" strokeLinecap="round" strokeLinejoin="round"/>
<path d="M11.6083 16.3754C12.2158 16.3754 12.7083 15.8829 12.7083 15.2754C12.7083 14.6679 12.2158 14.1754 11.6083 14.1754C11.0008 14.1754 10.5083 14.6679 10.5083 15.2754C10.5083 15.8829 11.0008 16.3754 11.6083 16.3754Z" stroke="#F8F9FA" strokeOpacity="0.75" strokeLinecap="round" strokeLinejoin="round"/>
<path d="M8.6665 12.8587L12.7081 11.7588" stroke="#F8F9FA" strokeOpacity="0.75" strokeLinecap="round" strokeLinejoin="round"/>
</svg>
