<svg width="110" height="29" viewBox="0 0 110 29" fill="none" xmlns="http://www.w3.org/2000/svg">
<path d="M1.36478 28.1662V17.3928C1.33624 16.8527 1.25063 16.2554 0.653013 16.2554H0V12.8164H0.68323C2.1907 12.8164 5.83179 12.8164 6.03156 15.1751C7.05556 13.6971 8.81988 12.5027 11.2943 12.5027C15.7596 12.5027 17.9788 14.6919 17.9788 19.1258V22.907C17.9788 24.187 18.2625 24.754 19.6005 24.754H19.8002L19.8288 28.1662C17.44 28.1662 13.2869 28.3088 13.2869 24.5561V20.4343C13.2869 17.4499 12.3485 16.029 9.87242 16.029C7.85295 16.029 6.03156 17.678 6.0601 20.4913L6.03156 20.4628V28.1662H1.36478Z" fill="white"/>
<path d="M21.5322 12.8142H26.1973V21.8261C26.1973 23.8728 27.7333 24.839 29.355 24.839C31.1478 24.839 33.0246 23.6731 33.0246 21.4856V12.8142H37.6897V22.9065C37.6897 24.1865 37.8324 24.7266 39.1686 24.7266H39.3684L39.3969 28.1657C35.8414 28.1657 33.6793 27.8251 33.1673 25.807C31.9435 27.654 29.924 28.5934 27.876 28.5934C24.6899 28.5934 21.5322 26.3187 21.5322 21.8278V12.8159V12.8142Z" fill="white"/>
<path d="M41.7863 28.1658V17.3925C41.7578 16.8523 41.6722 16.2551 41.0746 16.2551H40.4199V12.8161H41.1031C42.5535 12.8161 45.9394 12.8161 46.3943 14.8627C47.2471 13.5257 48.6707 12.5041 50.6616 12.5041C53.4784 12.5041 55.2411 13.4989 56.1241 15.4885C56.7502 13.8679 58.115 12.5041 60.7035 12.5041C64.9137 12.5041 66.7905 14.6933 66.7905 19.1271V22.9083C66.7905 24.1883 67.0742 24.7553 68.4121 24.7553H68.6119V28.1675C66.2231 28.1675 62.0985 28.3101 62.0985 24.5574V19.981C62.0985 17.3371 61.3582 16.0303 59.51 16.0303C57.8028 16.0303 56.8644 17.3942 56.7502 19.8116V28.1692H52.0566V19.9827C52.0566 17.3388 51.2609 16.032 49.3824 16.032C47.504 16.032 46.4531 17.624 46.4816 20.4943L46.4531 20.4658V28.1692H41.788L41.7863 28.1658Z" fill="white"/>
<path d="M87.8396 12.8152V28.1666H83.7436L83.2886 25.7224C82.0078 27.6835 79.9883 28.5944 77.8832 28.5944C74.128 28.5944 70.2032 25.6385 70.2032 20.4934C70.2032 15.3483 74.128 12.3925 77.8832 12.3925C79.9027 12.3925 81.8651 13.2447 83.1745 15.0933V12.8186H87.8396V12.8152ZM79.1355 24.8971C81.155 24.8971 83.1459 23.4762 83.1459 20.4918C83.1459 17.5074 81.155 16.1133 79.1355 16.1133C77.1161 16.1133 74.8968 17.6198 74.8968 20.4918C74.8968 23.3638 77.059 24.8971 79.1355 24.8971Z" fill="white"/>
<path d="M91.5663 28.1667V6.84644H96.2313V15.2896C97.1983 13.7547 98.9055 12.5032 101.466 12.5032C105.931 12.5032 108.15 14.6924 108.15 19.1262V22.9075C108.15 24.1875 108.462 24.7545 109.772 24.7545H109.971L110 28.1667C107.611 28.1667 103.456 28.3093 103.456 24.5565L103.485 20.4347C103.485 17.4504 102.518 16.0295 100.044 16.0295C98.0242 16.0295 96.2313 17.6215 96.2313 20.4918V20.4633V28.1667H91.5663Z" fill="white"/>
<path d="M108.148 4.41724C109.162 4.41724 109.998 5.23925 109.998 6.23908C109.998 7.23891 109.188 8.11292 108.148 8.11292C107.109 8.11292 106.273 7.26575 106.273 6.23908C106.273 5.2124 107.121 4.41724 108.148 4.41724ZM108.148 7.80928C109.01 7.80928 109.706 7.06276 109.706 6.24076C109.706 5.41875 108.998 4.69571 108.148 4.69571C107.299 4.69571 106.591 5.40533 106.591 6.24076C106.591 7.07619 107.299 7.80928 108.148 7.80928ZM108.921 7.29091H108.541L107.895 6.49407H107.73V7.29091H107.438V5.13859H108.096C108.528 5.15201 108.843 5.41707 108.843 5.80962C108.843 6.13842 108.59 6.40516 108.236 6.46723L108.919 7.28924L108.921 7.29091ZM107.73 6.22733H107.984C108.326 6.22733 108.58 6.11326 108.58 5.80962C108.58 5.50598 108.34 5.36674 107.997 5.36674H107.732V6.22733H107.73Z" fill="white"/>
<path d="M31.0144 10.9998V1.89976H34.9534C35.7681 1.89976 36.4701 2.03409 37.0594 2.30276C37.6488 2.56276 38.1038 2.93976 38.4244 3.43376C38.7451 3.92776 38.9054 4.51709 38.9054 5.20176C38.9054 5.87776 38.7451 6.46276 38.4244 6.95676C38.1038 7.45076 37.6488 7.83209 37.0594 8.10076C36.4701 8.36076 35.7681 8.49076 34.9534 8.49076H32.1844L33.1204 7.54176V10.9998H31.0144ZM33.1204 7.77576L32.1844 6.77476H34.8364C35.4864 6.77476 35.9718 6.63609 36.2924 6.35876C36.6131 6.08142 36.7734 5.69576 36.7734 5.20176C36.7734 4.69909 36.6131 4.30909 36.2924 4.03176C35.9718 3.75442 35.4864 3.61576 34.8364 3.61576H32.1844L33.1204 2.61476V7.77576ZM39.7333 10.9998V4.00576H41.6703V5.98176L41.3973 5.40976C41.6053 4.91576 41.9389 4.54309 42.3983 4.29176C42.8576 4.03176 43.4166 3.90176 44.0753 3.90176V5.77376C43.9886 5.76509 43.9106 5.76076 43.8413 5.76076C43.7719 5.75209 43.6983 5.74776 43.6203 5.74776C43.0656 5.74776 42.6149 5.90809 42.2683 6.22876C41.9303 6.54076 41.7613 7.03042 41.7613 7.69776V10.9998H39.7333ZM48.1813 11.1038C47.384 11.1038 46.682 10.9478 46.0753 10.6358C45.4773 10.3238 45.0137 9.89909 44.6843 9.36176C44.355 8.81576 44.1903 8.19609 44.1903 7.50276C44.1903 6.80076 44.3507 6.18109 44.6713 5.64376C45.0007 5.09776 45.447 4.67309 46.0103 4.36976C46.5737 4.05776 47.2107 3.90176 47.9213 3.90176C48.606 3.90176 49.2213 4.04909 49.7673 4.34376C50.322 4.62976 50.7597 5.04576 51.0803 5.59176C51.401 6.12909 51.5613 6.77476 51.5613 7.52876C51.5613 7.60676 51.557 7.69776 51.5483 7.80176C51.5397 7.89709 51.531 7.98809 51.5223 8.07476H45.8413V6.89176H50.4563L49.6763 7.24276C49.6763 6.87876 49.6027 6.56242 49.4553 6.29376C49.308 6.02509 49.1043 5.81709 48.8443 5.66976C48.5843 5.51376 48.281 5.43576 47.9343 5.43576C47.5877 5.43576 47.28 5.51376 47.0113 5.66976C46.7513 5.81709 46.5477 6.02942 46.4003 6.30676C46.253 6.57542 46.1793 6.89609 46.1793 7.26876V7.58076C46.1793 7.96209 46.2617 8.30009 46.4263 8.59476C46.5997 8.88076 46.838 9.10176 47.1413 9.25776C47.4533 9.40509 47.8173 9.47876 48.2333 9.47876C48.606 9.47876 48.931 9.42242 49.2083 9.30976C49.4943 9.19709 49.7543 9.02809 49.9883 8.80276L51.0673 9.97276C50.7467 10.3368 50.3437 10.6184 49.8583 10.8178C49.373 11.0084 48.814 11.1038 48.1813 11.1038ZM61.3485 3.90176C61.9032 3.90176 62.3928 4.01442 62.8175 4.23976C63.2508 4.45642 63.5888 4.79442 63.8315 5.25376C64.0828 5.70442 64.2085 6.28509 64.2085 6.99576V10.9998H62.1805V7.30776C62.1805 6.74442 62.0635 6.32842 61.8295 6.05976C61.5955 5.79109 61.2662 5.65676 60.8415 5.65676C60.5468 5.65676 60.2825 5.72609 60.0485 5.86476C59.8145 5.99476 59.6325 6.19409 59.5025 6.46276C59.3725 6.73142 59.3075 7.07376 59.3075 7.48976V10.9998H57.2795V7.30776C57.2795 6.74442 57.1625 6.32842 56.9285 6.05976C56.7032 5.79109 56.3782 5.65676 55.9535 5.65676C55.6588 5.65676 55.3945 5.72609 55.1605 5.86476C54.9265 5.99476 54.7445 6.19409 54.6145 6.46276C54.4845 6.73142 54.4195 7.07376 54.4195 7.48976V10.9998H52.3915V4.00576H54.3285V5.91676L53.9645 5.35776C54.2072 4.88109 54.5495 4.52142 54.9915 4.27876C55.4422 4.02742 55.9535 3.90176 56.5255 3.90176C57.1668 3.90176 57.7258 4.06642 58.2025 4.39576C58.6878 4.71642 59.0085 5.21042 59.1645 5.87776L58.4495 5.68276C58.6835 5.13676 59.0562 4.70342 59.5675 4.38276C60.0875 4.06209 60.6812 3.90176 61.3485 3.90176ZM65.5063 10.9998V4.00576H67.5343V10.9998H65.5063ZM66.5203 3.03076C66.1476 3.03076 65.8443 2.92242 65.6103 2.70576C65.3763 2.48909 65.2593 2.22042 65.2593 1.89976C65.2593 1.57909 65.3763 1.31042 65.6103 1.09376C65.8443 0.877089 66.1476 0.768755 66.5203 0.768755C66.8929 0.768755 67.1963 0.872755 67.4303 1.08076C67.6643 1.28009 67.7813 1.54009 67.7813 1.86076C67.7813 2.19876 67.6643 2.48042 67.4303 2.70576C67.2049 2.92242 66.9016 3.03076 66.5203 3.03076ZM71.8474 11.1038C71.2668 11.1038 70.7468 10.9911 70.2874 10.7658C69.8368 10.5404 69.4858 10.1981 69.2344 9.73876C68.9831 9.27076 68.8574 8.67709 68.8574 7.95776V4.00576H70.8854V7.65876C70.8854 8.23942 71.0068 8.66842 71.2494 8.94576C71.5008 9.21442 71.8518 9.34876 72.3024 9.34876C72.6144 9.34876 72.8918 9.28376 73.1344 9.15376C73.3771 9.01509 73.5678 8.80709 73.7064 8.52976C73.8451 8.24376 73.9144 7.88842 73.9144 7.46376V4.00576H75.9424V10.9998H74.0184V9.07576L74.3694 9.63476C74.1354 10.1201 73.7888 10.4884 73.3294 10.7398C72.8788 10.9824 72.3848 11.1038 71.8474 11.1038ZM86.2582 3.90176C86.8129 3.90176 87.3026 4.01442 87.7272 4.23976C88.1606 4.45642 88.4986 4.79442 88.7412 5.25376C88.9926 5.70442 89.1182 6.28509 89.1182 6.99576V10.9998H87.0902V7.30776C87.0902 6.74442 86.9732 6.32842 86.7392 6.05976C86.5052 5.79109 86.1759 5.65676 85.7512 5.65676C85.4566 5.65676 85.1922 5.72609 84.9582 5.86476C84.7242 5.99476 84.5422 6.19409 84.4122 6.46276C84.2822 6.73142 84.2172 7.07376 84.2172 7.48976V10.9998H82.1892V7.30776C82.1892 6.74442 82.0722 6.32842 81.8382 6.05976C81.6129 5.79109 81.2879 5.65676 80.8632 5.65676C80.5686 5.65676 80.3042 5.72609 80.0702 5.86476C79.8362 5.99476 79.6542 6.19409 79.5242 6.46276C79.3942 6.73142 79.3292 7.07376 79.3292 7.48976V10.9998H77.3012V4.00576H79.2382V5.91676L78.8742 5.35776C79.1169 4.88109 79.4592 4.52142 79.9012 4.27876C80.3519 4.02742 80.8632 3.90176 81.4352 3.90176C82.0766 3.90176 82.6356 4.06642 83.1122 4.39576C83.5976 4.71642 83.9182 5.21042 84.0742 5.87776L83.3592 5.68276C83.5932 5.13676 83.9659 4.70342 84.4772 4.38276C84.9972 4.06209 85.5909 3.90176 86.2582 3.90176Z" fill="#F5D805"/>
</svg>
